<svg width="16" height="20" viewBox="0 0 16 20" fill="none" xmlns="http://www.w3.org/2000/svg"><path d="M12 8c.067-3.253-5.31-2.341-4-8 0 0-3.6.994-3 5 .206 1.376 0 3 0 3-.503.1-1.273-1.5-1-3 0 0-2 1.33-2 3s1 4 1 4c-2.067-.435-2-3-2-3s-1 1.794-1 5c0 2.494 3.325 6 8 6s8-3.87 8-7c0-1.37-.963-3.035-2-4 0 0 .395 3.13-1 3 0 0 1.207-3.365 0-5 0 0-.382.947-1 1z" fill="url(#paint0_linear_44_1387)"/><path d="M11.788 6c.984-2.282-1.777-2.597-1.782-4 0 0-.137 1.011.891 2 .84.801.891 2 .891 2z" fill="url(#paint1_linear_44_1387)"/><path d="M4 1c-.335.444.08 2.276-.967 3 0 0-.31-2.012.967-3z" fill="url(#paint2_linear_44_1387)"/><path opacity=".5" d="M1 9c-.456.738-1 2.066-1 4 0 2.16 3.22 6 8 6 4.67 0 8-3.09 8-6 0-1.051-.315-3.047-1-4-.05.598-.525 1.576-1 2-.247.22-.66.035-1 0 .012-.029.648-2.368 0-4-.26.598-.457.96-1 1 .025-1.202-1.093-2.262-2-3-1.295-1.057-2.537-1.962-2-5-.9.5-2.438 2.16-2 5 .222 1.423-.981 1.954-1 2-.26.046.247.22 0 0-.333-.308-.988-1.21-1-2-.506.488-1 2.042-1 3 0 1.574-.006 2.983 0 3h1-1c-1.419-.29-1.864-.983-2-2z" fill="url(#paint3_linear_44_1387)"/><path d="M10.01 2c-.09.834.444 1.597.88 2 .401.37.845 1.442.881 2 .683-1.624-.33-1.762-.88-2-.232-.1-.863-1.144-.88-2z" fill="url(#paint4_radial_44_1387)"/><path d="M7.004 1c-1.976 3.02.322 6.09-1 8-1.32 1.91-1.91.196-1.998-1 0 0 .04 3.473 1.999 5 1.958 1.527-4.212 1.864-4.998 0 0 0-.46 6 5.997 6C13.462 19 15 13 15 13s-2.433 2.527-3.998 1c0 0 1.701-1.944 1.999-4 0 0-1.755.192-2.998 0 0 0 1.41-3.054 0-4-1.81-1.214-3.63-4.036-2.999-5z" fill="url(#paint5_linear_44_1387)"/><path d="M7.993 5c-1.038 1.348 1.124 4.582-.999 5.954-1.175.76-1.997 0-1.997 0s-.266 1.729.998 2.977C7.26 15.179 4.57 17.107 2 14.923c0 0 1.01 4.853 6.992 3.97 6.602-.972 5.993-5.954 5.993-5.954s-1.449 2.322-3.995.992c0 0 .999-1.711.999-2.977 0 0-.758.612-1.998 0 0 0 .704-2.536 0-2.977C8.303 6.911 7.993 5 7.993 5z" fill="url(#paint6_linear_44_1387)"/><path opacity=".5" d="M12 8c.067-3.253-5.31-2.341-4-8 0 0-3.6.994-3 5 .206 1.376 0 3 0 3-.503.1-1.273-1.5-1-3 0 0-2 1.33-2 3s1 4 1 4c-2.067-.435-2-3-2-3s-1 1.794-1 5c0 2.494 3.325 6 8 6s8-3.87 8-7c0-1.37-.963-3.035-2-4 0 0 .395 3.13-1 3 0 0 1.207-3.365 0-5 0 0-.382.947-1 1z" fill="url(#paint7_radial_44_1387)"/><path opacity=".5" d="M12 8c.067-3.253-5.31-2.341-4-8 0 0-3.6.994-3 5 .206 1.376 0 3 0 3-.503.1-1.273-1.5-1-3 0 0-2 1.33-2 3s1 4 1 4c-2.067-.435-2-3-2-3s-1 1.794-1 5c0 2.494 3.325 6 8 6s8-3.87 8-7c0-1.37-.963-3.035-2-4 0 0 .395 3.13-1 3 0 0 1.207-3.365 0-5 0 0-.382.947-1 1z" fill="url(#paint8_radial_44_1387)"/><path d="M0 12c.138 3.19 2.628 7 7 7s6.862-4.465 7-7c0 0-1.154 1.7-3 2-1.846.3.293-3.058-1-5 0 0-1.376 3.876-3 4-1.624.124-3-2.73-3-4 0 0-.247 2.182 0 4 .379 2.761-4-1-4-1z" fill="url(#paint9_radial_44_1387)"/><path opacity=".5" d="M12 8c.067-3.253-5.31-2.341-4-8 0 0-3.6.994-3 5 .206 1.376 0 3 0 3-.503.1-1.273-1.5-1-3 0 0-2 1.33-2 3s1 4 1 4c-2.067-.435-2-3-2-3s-1 1.794-1 5c0 2.494 3.325 6 8 6s8-3.87 8-7c0-1.37-.963-3.035-2-4 0 0 .395 3.13-1 3 0 0 1.207-3.365 0-5 0 0-.382.947-1 1z" fill="url(#paint10_radial_44_1387)"/><path opacity=".5" d="M11.788 6c.984-2.282-1.777-2.597-1.782-4 0 0-.137 1.011.891 2 .84.801.891 2 .891 2z" fill="url(#paint11_radial_44_1387)"/><path d="M4 1c-.33.444-.163 1.843-.967 3 0 0-.31-2.012.967-3z" fill="url(#paint12_radial_44_1387)"/><path opacity=".5" d="M4 1c-.335.444.08 2.276-.967 3 0 0-.31-2.012.967-3z" fill="url(#paint13_radial_44_1387)"/><path opacity=".5" d="M12 8c.067-3.253-5.31-2.341-4-8 0 0-3.6.994-3 5 .206 1.376 0 3 0 3-.503.1-1.273-1.5-1-3 0 0-2 1.33-2 3s1 4 1 4c-2.067-.435-2-3-2-3s-1 1.794-1 5c0 2.494 3.325 6 8 6s8-3.87 8-7c0-1.37-.963-3.035-2-4 0 0 .395 3.13-1 3 0 0 1.207-3.365 0-5 0 0-.382.947-1 1z" fill="url(#paint14_radial_44_1387)"/><path opacity=".25" d="M12 8c.067-3.253-5.31-2.341-4-8 0 0-3.6.994-3 5 .206 1.376 0 3 0 3-.503.1-1.273-1.5-1-3 0 0-2 1.33-2 3s1 4 1 4c-2.067-.435-2-3-2-3s-1 1.794-1 5c0 2.494 3.325 6 8 6s8-3.87 8-7c0-1.37-.963-3.035-2-4 0 0 .395 3.13-1 3 0 0 1.207-3.365 0-5 0 0-.382.947-1 1z" fill="url(#paint15_radial_44_1387)"/><path opacity=".25" d="M12 8c.067-3.253-5.31-2.341-4-8 0 0-3.6.994-3 5 .206 1.376 0 3 0 3-.503.1-1.273-1.5-1-3 0 0-2 1.33-2 3s1 4 1 4c-2.067-.435-2-3-2-3s-1 1.794-1 5c0 2.494 3.325 6 8 6s8-3.87 8-7c0-1.37-.963-3.035-2-4 0 0 .395 3.13-1 3 0 0 1.207-3.365 0-5 0 0-.382.947-1 1z" fill="url(#paint16_radial_44_1387)"/><path opacity=".25" d="M12 8c.067-3.253-5.31-2.341-4-8 0 0-3.6.994-3 5 .206 1.376 0 3 0 3-.503.1-1.273-1.5-1-3 0 0-2 1.33-2 3s1 4 1 4c-2.067-.435-2-3-2-3s-1 1.794-1 5c0 2.494 3.325 6 8 6s8-3.87 8-7c0-1.37-.963-3.035-2-4 0 0 .395 3.13-1 3 0 0 1.207-3.365 0-5 0 0-.382.947-1 1z" fill="url(#paint17_radial_44_1387)"/><defs><radialGradient id="paint4_radial_44_1387" cx="0" cy="0" r="1" gradientUnits="userSpaceOnUse" gradientTransform="matrix(9.23213 0 0 9.86248 12.098 -1.725)"><stop offset=".001" stop-color="#FFED1C" stop-opacity=".6"/><stop offset=".948" stop-color="#FFED1C" stop-opacity=".026"/><stop offset=".991" stop-color="#FFED1C" stop-opacity="0"/></radialGradient><radialGradient id="paint7_radial_44_1387" cx="0" cy="0" r="1" gradientUnits="userSpaceOnUse" gradientTransform="matrix(8.37212 0 0 6.59409 7.894 15.326)"><stop offset=".001" stop-color="#FFBC47"/><stop offset=".294" stop-color="#FFBF4B" stop-opacity=".707"/><stop offset=".562" stop-color="#FEC656" stop-opacity=".438"/><stop offset=".82" stop-color="#FCD368" stop-opacity=".18"/><stop offset="1" stop-color="#FBE07A" stop-opacity="0"/></radialGradient><radialGradient id="paint8_radial_44_1387" cx="0" cy="0" r="1" gradientUnits="userSpaceOnUse" gradientTransform="matrix(8.11414 0 0 6.3909 7.894 14.992)"><stop offset=".001" stop-color="#fff"/><stop offset="1" stop-color="#fff" stop-opacity="0"/></radialGradient><radialGradient id="paint9_radial_44_1387" cx="0" cy="0" r="1" gradientUnits="userSpaceOnUse" gradientTransform="matrix(9.88683 0 0 10.8083 3.892 16.1)"><stop offset=".001" stop-color="#FFED1C" stop-opacity=".6"/><stop offset=".948" stop-color="#FFED1C" stop-opacity=".026"/><stop offset=".991" stop-color="#FFED1C" stop-opacity="0"/></radialGradient><radialGradient id="paint10_radial_44_1387" cx="0" cy="0" r="1" gradientUnits="userSpaceOnUse" gradientTransform="matrix(-.1587 3.05256 -2.55358 -.13275 7.894 14.991)"><stop offset=".001" stop-color="#fff"/><stop offset="1" stop-color="#fff" stop-opacity="0"/></radialGradient><radialGradient id="paint11_radial_44_1387" cx="0" cy="0" r="1" gradientUnits="userSpaceOnUse" gradientTransform="matrix(2.90807 0 0 3.25847 9.83 1.995)"><stop offset=".001" stop-color="#FFED1C"/><stop offset=".2" stop-color="#FFEE2B" stop-opacity=".801"/><stop offset=".584" stop-color="#FFF254" stop-opacity=".417"/><stop offset="1" stop-color="#FFF686" stop-opacity="0"/></radialGradient><radialGradient id="paint12_radial_44_1387" cx="0" cy="0" r="1" gradientUnits="userSpaceOnUse" gradientTransform="matrix(1.07664 -2.10196 .4203 .21528 3.262 2.843)"><stop offset=".001" stop-color="#FFED1C" stop-opacity=".6"/><stop offset=".948" stop-color="#FFED1C" stop-opacity=".026"/><stop offset=".991" stop-color="#FFED1C" stop-opacity="0"/></radialGradient><radialGradient id="paint13_radial_44_1387" cx="0" cy="0" r="1" gradientUnits="userSpaceOnUse" gradientTransform="matrix(-.15415 2.25845 -.7031 -.04799 3.647 .864)"><stop offset=".001" stop-color="#FFED1C"/><stop offset=".2" stop-color="#FFEE2B" stop-opacity=".801"/><stop offset=".584" stop-color="#FFF254" stop-opacity=".417"/><stop offset="1" stop-color="#FFF686" stop-opacity="0"/></radialGradient><radialGradient id="paint14_radial_44_1387" cx="0" cy="0" r="1" gradientUnits="userSpaceOnUse" gradientTransform="matrix(11.1576 0 0 10.8253 8.841 1.302)"><stop offset=".001" stop-color="#FF4C00"/><stop offset=".135" stop-color="#FF5B0C" stop-opacity=".866"/><stop offset=".394" stop-color="#FF842C" stop-opacity=".607"/><stop offset=".749" stop-color="#FFC45F" stop-opacity=".251"/><stop offset="1" stop-color="#FFF686" stop-opacity="0"/></radialGradient><radialGradient id="paint15_radial_44_1387" cx="0" cy="0" r="1" gradientUnits="userSpaceOnUse" gradientTransform="matrix(5.92224 0 0 5.74588 13.916 10.072)"><stop offset=".001" stop-color="#FFED1C"/><stop offset=".2" stop-color="#FFEE2B" stop-opacity=".801"/><stop offset=".584" stop-color="#FFF254" stop-opacity=".417"/><stop offset="1" stop-color="#FFF686" stop-opacity="0"/></radialGradient><radialGradient id="paint16_radial_44_1387" cx="0" cy="0" r="1" gradientUnits="userSpaceOnUse" gradientTransform="matrix(6.31235 0 0 6.12438 1.793 12.12)"><stop offset=".001" stop-color="#FFED1C"/><stop offset=".2" stop-color="#FFEE2B" stop-opacity=".801"/><stop offset=".584" stop-color="#FFF254" stop-opacity=".417"/><stop offset="1" stop-color="#FFF686" stop-opacity="0"/></radialGradient><radialGradient id="paint17_radial_44_1387" cx="0" cy="0" r="1" gradientUnits="userSpaceOnUse" gradientTransform="matrix(.7335 10.46643 -6.55593 .45945 7.8 10.882)"><stop stop-color="#FF4C00" stop-opacity="0"/><stop offset=".987" stop-color="#FF4C00" stop-opacity=".989"/><stop offset=".999" stop-color="#FF4C00"/></radialGradient><linearGradient id="paint0_linear_44_1387" x1="9.025" y1="20.553" x2="5.523" y2="-5.608" gradientUnits="userSpaceOnUse"><stop stop-color="red"/><stop offset=".232" stop-color="#FF1500"/><stop offset=".737" stop-color="#FF3D00"/><stop offset=".999" stop-color="#FF4C00"/></linearGradient><linearGradient id="paint1_linear_44_1387" x1="12.876" y1="19.11" x2="9.099" y2="-5.318" gradientUnits="userSpaceOnUse"><stop stop-color="red"/><stop offset=".232" stop-color="#FF1500"/><stop offset=".737" stop-color="#FF3D00"/><stop offset=".999" stop-color="#FF4C00"/></linearGradient><linearGradient id="paint2_linear_44_1387" x1="5.225" y1="18.513" x2="1.079" y2="-4.656" gradientUnits="userSpaceOnUse"><stop stop-color="red"/><stop offset=".232" stop-color="#FF1500"/><stop offset=".737" stop-color="#FF3D00"/><stop offset=".999" stop-color="#FF4C00"/></linearGradient><linearGradient id="paint3_linear_44_1387" x1="9.08" y1="15.412" x2="1.661" y2="-7.088" gradientUnits="userSpaceOnUse"><stop stop-color="#FF8000"/><stop offset=".639" stop-color="#FF5B00"/><stop offset=".999" stop-color="#FF4C00"/></linearGradient><linearGradient id="paint5_linear_44_1387" x1="5.692" y1=".59" x2="8.438" y2="16.39" gradientUnits="userSpaceOnUse"><stop stop-color="#FF8000"/><stop offset=".023" stop-color="#FE7F02" stop-opacity=".977"/><stop offset=".666" stop-color="#ED582A" stop-opacity=".334"/><stop offset="1" stop-color="#E74939" stop-opacity="0"/></linearGradient><linearGradient id="paint6_linear_44_1387" x1="8.257" y1="18.367" x2="8.874" y2="7.049" gradientUnits="userSpaceOnUse"><stop stop-color="#FFBC47"/><stop offset=".187" stop-color="#FFB137" stop-opacity=".813"/><stop offset=".722" stop-color="#FF940F" stop-opacity=".278"/><stop offset="1" stop-color="#FF8900" stop-opacity="0"/></linearGradient></defs></svg>p-color="#FFED1C" stop-opacity="0.0264782"/>
<stop offset="0.9914" stop-color="#FFED1C" stop-opacity="0"/>
</radialGradient>
<radialGradient id="paint13_radial_44_1387" cx="0" cy="0" r="1" gradientUnits="userSpaceOnUse" gradientTransform="translate(3.64725 0.863879) rotate(93.9047) scale(2.2637 0.704733)">
<stop offset="0.00134333" stop-color="#FFED1C"/>
<stop offset="0.1997" stop-color="#FFEE2B" stop-opacity="0.8013"/>
<stop offset="0.5839" stop-color="#FFF254" stop-opacity="0.4167"/>
<stop offset="1" stop-color="#FFF686" stop-opacity="0"/>
</radialGradient>
<radialGradient id="paint14_radial_44_1387" cx="0" cy="0" r="1" gradientUnits="userSpaceOnUse" gradientTransform="translate(8.84132 1.30217) scale(11.1576 10.8253)">
<stop offset="0.00134333" stop-color="#FF4C00"/>
<stop offset="0.135" stop-color="#FF5B0C" stop-opacity="0.8661"/>
<stop offset="0.3941" stop-color="#FF842C" stop-opacity="0.6067"/>
<stop offset="0.7491" stop-color="#FFC45F" stop-opacity="0.2512"/>
<stop offset="1" stop-color="#FFF686" stop-opacity="0"/>
</radialGradient>
<radialGradient id="paint15_radial_44_1387" cx="0" cy="0" r="1" gradientUnits="userSpaceOnUse" gradientTransform="translate(13.9161 10.0723) scale(5.92224 5.74588)">
<stop offset="0.00134333" stop-color="#FFED1C"/>
<stop offset="0.1997" stop-color="#FFEE2B" stop-opacity="0.8013"/>
<stop offset="0.5839" stop-color="#FFF254" stop-opacity="0.4167"/>
<stop offset="1" stop-color="#FFF686" stop-opacity="0"/>
</radialGradient>
<radialGradient id="paint16_radial_44_1387" cx="0" cy="0" r="1" gradientUnits="userSpaceOnUse" gradientTransform="translate(1.79307 12.1202) scale(6.31235 6.12438)">
<stop offset="0.00134333" stop-color="#FFED1C"/>
<stop offset="0.1997" stop-color="#FFEE2B" stop-opacity="0.8013"/>
<stop offset="0.5839" stop-color="#FFF254" stop-opacity="0.4167"/>
<stop offset="1" stop-color="#FFF686" stop-opacity="0"/>
</radialGradient>
<radialGradient id="paint17_radial_44_1387" cx="0" cy="0" r="1" gradientUnits="userSpaceOnUse" gradientTransform="translate(7.79981 10.8824) rotate(85.9912) scale(10.4921 6.57201)">
<stop stop-color="#FF4C00" stop-opacity="0"/>
<stop offset="0.9874" stop-color="#FF4C00" stop-opacity="0.9888"/>
<stop offset="0.9987" stop-color="#FF4C00"/>
</radialGradient>
</defs>
</svg>
