<svg width="20" height="20" viewBox="0 0 20 20" fill="none" xmlns="http://www.w3.org/2000/svg"><path d="M10 20c5.523 0 10-4.477 10-10S15.523 0 10 0 0 4.477 0 10s4.477 10 10 10z" fill="url(#paint0_radial_44_1447)"/><path opacity=".5" d="M10 20c5.523 0 10-4.477 10-10S15.523 0 10 0 0 4.477 0 10s4.477 10 10 10z" fill="url(#paint1_radial_44_1447)"/><path d="M10 20c5.523 0 10-4.477 10-10S15.523 0 10 0 0 4.477 0 10s4.477 10 10 10z" fill="url(#paint2_radial_44_1447)"/><path d="M10 20c5.523 0 10-4.477 10-10S15.523 0 10 0 0 4.477 0 10s4.477 10 10 10z" fill="url(#paint3_radial_44_1447)"/><path d="M16.922 14.057c.006-.056-.006-.938 0-.988-.012-.183.182.063 0 0-.094-.038-.889-.025-.99 0-2.046.572-3.787.988-5.934.988-2.147 0-3.888-.41-5.935-.988-.094-.025-.895-.038-.99 0-.174.069.02-.183 0 0 .007.063-.012.92 0 .988.026.088-.037-.1 0 0C3.776 15.704 5.83 19 9.999 19c4.163 0 6.217-3.296 6.924-4.943-.019.082.031-.088 0 0z" fill="url(#paint4_radial_44_1447)"/><path d="M10 18c1.699 0 3.006-.314 4-1-1.093-.503-2.413-1-4-1-1.587 0-2.907.49-4 1 1 .686 2.301 1 4 1z" fill="url(#paint5_radial_44_1447)"/><path d="M16.925 14.054c.012-.073 0-.923 0-.982-.013-.193.175.073 0 0-.094-.04-.89-.027-.99 0-2.047.604-3.788.982-5.936.982-2.147 0-3.888-.372-5.936-.982-.094-.027-.895-.04-.99 0-.174.073.02-.193 0 0 .007.06-.005.909 0 .982.026.092-.037-.1 0 0 .283.703 1.253 2.103 1.98 2.946-.683-.863-.52-1.175.989-.982 1.503.192 3.957 0 3.957 0s2.455.192 3.958 0c1.502-.193 1.672.126.99.982.732-.843 1.696-2.243 1.978-2.946-.025.092.037-.107 0 0z" fill="url(#paint6_linear_44_1447)"/><path d="M11 14c-2.208 0-4.888-.414-7-1 .051.548.464.879 1 1 1.793.395 3.15 1 5 1 1.998 0 4.073-.541 6-1 .287-.07.968.293 1 0v-1c-2.106.58-3.792 1-6 1z" fill="url(#paint7_radial_44_1447)"/><path d="M6.551 4.177c-.748.28-1.986 1.334-2.124 1.95-.658-.326-1.376-.28-2.124 0-1.212.45-1.61.956-1.062 1.949C2.445 10.273 7.613 11 7.613 11s3.329-3.646 2.124-5.848c-.54-.987-1.974-1.425-3.186-.975z" fill="url(#paint8_radial_44_1447)"/><path opacity=".5" d="M7.477 4c2.211 1.159 2.195 3.894 1.12 5C7.41 10.223 5.79 10.205 3 10c2.025.872 4.477 1 4.477 1s3.53-3.74 2.24-6c-.424-.737-1.26-.994-2.24-1z" fill="url(#paint9_radial_44_1447)"/><path opacity=".5" d="M6.551 4.177c-.748.28-1.986 1.334-2.124 1.95-.658-.326-1.376-.28-2.124 0-1.212.45-1.61.956-1.062 1.949C2.445 10.273 7.613 11 7.613 11s3.329-3.646 2.124-5.848c-.54-.987-1.974-1.425-3.186-.975z" fill="url(#paint10_radial_44_1447)"/><path opacity=".5" d="M6.551 4.177c-.748.28-1.986 1.334-2.124 1.95-.658-.326-1.376-.28-2.124 0-1.212.45-1.61.956-1.062 1.949C2.445 10.273 7.613 11 7.613 11s3.329-3.646 2.124-5.848c-.54-.987-1.974-1.425-3.186-.975z" fill="url(#paint11_radial_44_1447)"/><path opacity=".24" d="M3.872 6.115c.424.382-.288 1.184-.915 1.847s-1.397 1.306-1.829.923c-.424-.382.288-1.184.915-1.847s1.397-1.306 1.829-.923z" fill="url(#paint12_radial_44_1447)"/><path opacity=".24" d="M7.664 4.02c.523.142.367.455 0 .98-.368.52-1.793 1.12-2.324.98-.532-.142-.367-.455 0-.98.367-.52 1.792-1.12 2.324-.98z" fill="url(#paint13_radial_44_1447)"/><path opacity=".32" d="M6.271 5.135c1.484-.1 3.277.59 2.271 2.878-.6 1.368-1.55 2.53-3.406 2.877 1.289.247 2.27 0 2.27 0S11.09 7.3 9.679 5.135c-.64-.981-3.131-1.402-4.542-.959C4.26 4.451 4.162 5.489 4 6.094c0 0 1.185-.886 2.271-.959z" fill="url(#paint14_linear_44_1447)"/><path d="M17.844 6.126c-.665-.28-1.31-.33-1.89 0-.122-.622-1.224-1.67-1.889-1.95-1.077-.444-2.347-.023-2.833.975C10.167 7.347 13.12 11 13.12 11s4.603-.723 5.668-2.924c.48-.993.132-1.505-.945-1.95z" fill="url(#paint15_radial_44_1447)"/><path opacity=".5" d="M17.913 6c.328 2.092-1.4 3.9-2.963 4-1.725.112-2.48-.203-3.95-2 .453 1.79 1.975 3 1.975 3s4.79-.719 5.926-3c.38-.762-.417-1.415-.988-2z" fill="url(#paint16_radial_44_1447)"/><path opacity=".5" d="M17.844 6.126c-.665-.28-1.31-.33-1.89 0-.122-.622-1.224-1.67-1.889-1.95-1.077-.444-2.347-.023-2.833.975C10.167 7.347 13.12 11 13.12 11s4.603-.723 5.668-2.924c.48-.993.132-1.505-.945-1.95z" fill="url(#paint17_radial_44_1447)"/><path opacity=".5" d="M17.844 6.126c-.665-.28-1.31-.33-1.89 0-.122-.622-1.224-1.67-1.889-1.95-1.077-.444-2.347-.023-2.833.975C10.167 7.347 13.12 11 13.12 11s4.603-.723 5.668-2.924c.48-.993.132-1.505-.945-1.95z" fill="url(#paint18_radial_44_1447)"/><path opacity=".24" d="M15 5c-.012.552-1.174 1.018-2 1-.826-.02-1.006-.448-1-1 .012-.552 1.174-1.018 2-1 .832.02 1.011.448 1 1z" fill="url(#paint19_radial_44_1447)"/><path opacity=".24" d="M17.96 7.001c.164.467-.185.711-.973.951s-1.784-.484-1.948-.951c-.163-.467.186-.711.974-.951.788-.247 1.784.484 1.948.951z" fill="url(#paint20_radial_44_1447)"/><path opacity=".32" d="M16.847 6.2c.848.747 1.461 1.816-.97 2.88-1.457.634-2.633.777-3.877 0 .452.885.97 1.92.97 1.92s4.729-.573 5.815-2.88c.49-1.046.13-2.408-.969-2.88-.678-.293-1.348-.346-1.939 0 0-.006.354.416.97.96z" fill="url(#paint21_linear_44_1447)"/><defs><radialGradient id="paint0_radial_44_1447" cx="0" cy="0" r="1" gradientUnits="userSpaceOnUse" gradientTransform="translate(8.032 5.947) scale(12.0637)"><stop stop-color="#FFE030"/><stop offset="1" stop-color="#FFB92E"/></radialGradient><radialGradient id="paint1_radial_44_1447" cx="0" cy="0" r="1" gradientUnits="userSpaceOnUse" gradientTransform="translate(8.032 5.947) scale(9.49105)"><stop stop-color="#FFEA5F"/><stop offset="1" stop-color="#FFBC47" stop-opacity="0"/></radialGradient><radialGradient id="paint2_radial_44_1447" cx="0" cy="0" r="1" gradientUnits="userSpaceOnUse" gradientTransform="matrix(4.45363 2.8632 -2.08982 3.25066 4.449 10.088)"><stop stop-color="#EB672A" stop-opacity=".5"/><stop offset=".429" stop-color="#DC641B" stop-opacity=".285"/><stop offset=".995" stop-color="#C25E00" stop-opacity="0"/></radialGradient><radialGradient id="paint3_radial_44_1447" cx="0" cy="0" r="1" gradientUnits="userSpaceOnUse" gradientTransform="matrix(-4.4536 2.86323 -2.08984 -3.25064 15.557 10.08)"><stop stop-color="#EB672A" stop-opacity=".5"/><stop offset=".429" stop-color="#DC641B" stop-opacity=".285"/><stop offset=".995" stop-color="#C25E00" stop-opacity="0"/></radialGradient><radialGradient id="paint4_radial_44_1447" cx="0" cy="0" r="1" gradientUnits="userSpaceOnUse" gradientTransform="matrix(5.38069 0 0 5.40471 9.999 16.001)"><stop offset=".001" stop-color="#7A4400"/><stop offset="1" stop-color="#643800"/></radialGradient><radialGradient id="paint5_radial_44_1447" cx="0" cy="0" r="1" gradientUnits="userSpaceOnUse" gradientTransform="matrix(4.45369 0 0 1.33672 10.083 17.242)"><stop offset=".248" stop-color="red"/><stop offset="1" stop-color="#C20000"/></radialGradient><radialGradient id="paint7_radial_44_1447" cx="0" cy="0" r="1" gradientUnits="userSpaceOnUse" gradientTransform="matrix(11.8999 0 0 11.8766 10.503 14)"><stop offset=".001" stop-color="#fff"/><stop offset="1" stop-color="#A9BCBE"/></radialGradient><radialGradient id="paint8_radial_44_1447" cx="0" cy="0" r="1" gradientUnits="userSpaceOnUse" gradientTransform="matrix(4.29821 -4.6771 3.87536 3.56142 4.177 7.01)"><stop offset=".248" stop-color="red"/><stop offset=".864" stop-color="#C20000"/></radialGradient><radialGradient id="paint9_radial_44_1447" cx="0" cy="0" r="1" gradientUnits="userSpaceOnUse" gradientTransform="rotate(-45.898 9.744 -1.22) scale(5.60704 4.66018)"><stop offset=".248" stop-color="red"/><stop offset="1" stop-color="#C20000"/></radialGradient><radialGradient id="paint10_radial_44_1447" cx="0" cy="0" r="1" gradientUnits="userSpaceOnUse" gradientTransform="matrix(4.29821 -4.6771 3.87536 3.56142 4.177 7.01)"><stop stop-color="#fff" stop-opacity=".25"/><stop offset="1" stop-color="#fff" stop-opacity="0"/></radialGradient><radialGradient id="paint11_radial_44_1447" cx="0" cy="0" r="1" gradientUnits="userSpaceOnUse" gradientTransform="matrix(3.36523 -3.2727 1.64797 1.69456 7.57 7.956)"><stop stop-color="#BD2719" stop-opacity=".25"/><stop offset="1" stop-color="#BD2719" stop-opacity="0"/></radialGradient><radialGradient id="paint12_radial_44_1447" cx="0" cy="0" r="1" gradientUnits="userSpaceOnUse" gradientTransform="matrix(1.27546 -1.27721 .7939 .79281 2.5 7.51)"><stop stop-color="#fff"/><stop offset="1" stop-color="#fff" stop-opacity="0"/></radialGradient><radialGradient id="paint13_radial_44_1447" cx="0" cy="0" r="1" gradientUnits="userSpaceOnUse" gradientTransform="matrix(.90408 -.95794 .77762 .7339 6.5 5.006)"><stop stop-color="#fff"/><stop offset="1" stop-color="#fff" stop-opacity="0"/></radialGradient><radialGradient id="paint15_radial_44_1447" cx="0" cy="0" r="1" gradientUnits="userSpaceOnUse" gradientTransform="matrix(6.42942 -.53217 .3797 4.58735 14.025 6.134)"><stop offset=".248" stop-color="red"/><stop offset=".864" stop-color="#C20000"/></radialGradient><radialGradient id="paint16_radial_44_1447" cx="0" cy="0" r="1" gradientUnits="userSpaceOnUse" gradientTransform="matrix(5.6447 -.46276 .32707 3.98958 14.242 5.81)"><stop offset=".248" stop-color="red"/><stop offset="1" stop-color="#C20000"/></radialGradient><radialGradient id="paint17_radial_44_1447" cx="0" cy="0" r="1" gradientUnits="userSpaceOnUse" gradientTransform="matrix(6.42942 -.53217 .3797 4.58735 14.025 6.134)"><stop stop-color="#fff" stop-opacity=".25"/><stop offset="1" stop-color="#fff" stop-opacity="0"/></radialGradient><radialGradient id="paint18_radial_44_1447" cx="0" cy="0" r="1" gradientUnits="userSpaceOnUse" gradientTransform="matrix(4.70966 -.1589 .07053 2.09031 15.247 8.782)"><stop stop-color="#BD2719" stop-opacity=".25"/><stop offset="1" stop-color="#BD2719" stop-opacity="0"/></radialGradient><radialGradient id="paint19_radial_44_1447" cx="0" cy="0" r="1" gradientUnits="userSpaceOnUse" gradientTransform="matrix(1.50513 .06822 -.0449 .99048 13.503 5.007)"><stop stop-color="#fff"/><stop offset="1" stop-color="#fff" stop-opacity="0"/></radialGradient><radialGradient id="paint20_radial_44_1447" cx="0" cy="0" r="1" gradientUnits="userSpaceOnUse" gradientTransform="matrix(1.48698 -.42684 .25658 .89385 16.51 6.996)"><stop stop-color="#fff"/><stop offset="1" stop-color="#fff" stop-opacity="0"/></radialGradient><linearGradient id="paint6_linear_44_1447" x1="16.927" y1="15.002" x2="3.17" y2="15.002" gradientUnits="userSpaceOnUse"><stop offset=".001" stop-color="#3C2200"/><stop offset=".5" stop-color="#512D00"/><stop offset="1" stop-color="#3C2200"/></linearGradient><linearGradient id="paint14_linear_44_1447" x1="10.145" y1="13.088" x2="7.718" y2="3.364" gradientUnits="userSpaceOnUse"><stop stop-color="#860805"/><stop offset="1" stop-color="#BD2719" stop-opacity="0"/></linearGradient><linearGradient id="paint21_linear_44_1447" x1="12.511" y1="13.896" x2="17.313" y2="4.649" gradientUnits="userSpaceOnUse"><stop stop-color="#860805"/><stop offset="1" stop-color="#BD2719" stop-opacity="0"/></linearGradient></defs></svg>9918 7.51082) rotate(-45.0394) scale(1.80501 1.12198)">
<stop stop-color="white"/>
<stop offset="1" stop-color="white" stop-opacity="0"/>
</radialGradient>
<radialGradient id="paint13_radial_44_1447" cx="0" cy="0" r="1" gradientUnits="userSpaceOnUse" gradientTransform="translate(6.50058 5.00565) rotate(-46.6568) scale(1.3172 1.06925)">
<stop stop-color="white"/>
<stop offset="1" stop-color="white" stop-opacity="0"/>
</radialGradient>
<linearGradient id="paint14_linear_44_1447" x1="10.1446" y1="13.0879" x2="7.71765" y2="3.3643" gradientUnits="userSpaceOnUse">
<stop stop-color="#860805"/>
<stop offset="1" stop-color="#BD2719" stop-opacity="0"/>
</linearGradient>
<radialGradient id="paint15_radial_44_1447" cx="0" cy="0" r="1" gradientUnits="userSpaceOnUse" gradientTransform="translate(14.0253 6.13405) rotate(-4.73162) scale(6.45141 4.60304)">
<stop offset="0.2479" stop-color="#FF0000"/>
<stop offset="0.8639" stop-color="#C20000"/>
</radialGradient>
<radialGradient id="paint16_radial_44_1447" cx="0" cy="0" r="1" gradientUnits="userSpaceOnUse" gradientTransform="translate(14.2422 5.81093) rotate(-4.68671) scale(5.66364 4.00296)">
<stop offset="0.2479" stop-color="#FF0000"/>
<stop offset="1" stop-color="#C20000"/>
</radialGradient>
<radialGradient id="paint17_radial_44_1447" cx="0" cy="0" r="1" gradientUnits="userSpaceOnUse" gradientTransform="translate(14.0253 6.13405) rotate(-4.73162) scale(6.45141 4.60304)">
<stop stop-color="white" stop-opacity="0.25"/>
<stop offset="1" stop-color="white" stop-opacity="0"/>
</radialGradient>
<radialGradient id="paint18_radial_44_1447" cx="0" cy="0" r="1" gradientUnits="userSpaceOnUse" gradientTransform="translate(15.2467 8.78194) rotate(-1.93249) scale(4.71234 2.0915)">
<stop stop-color="#BD2719" stop-opacity="0.25"/>
<stop offset="1" stop-color="#BD2719" stop-opacity="0"/>
</radialGradient>
<radialGradient id="paint19_radial_44_1447" cx="0" cy="0" r="1" gradientUnits="userSpaceOnUse" gradientTransform="translate(13.503 5.00739) rotate(2.59524) scale(1.50668 0.991499)">
<stop stop-color="white"/>
<stop offset="1" stop-color="white" stop-opacity="0"/>
</radialGradient>
<radialGradient id="paint20_radial_44_1447" cx="0" cy="0" r="1" gradientUnits="userSpaceOnUse" gradientTransform="translate(16.5098 6.99609) rotate(-16.0163) scale(1.54703 0.929951)">
<stop stop-color="white"/>
<stop offset="1" stop-color="white" stop-opacity="0"/>
</radialGradient>
<linearGradient id="paint21_linear_44_1447" x1="12.5112" y1="13.8965" x2="17.3128" y2="4.649" gradientUnits="userSpaceOnUse">
<stop stop-color="#860805"/>
<stop offset="1" stop-color="#BD2719" stop-opacity="0"/>
</linearGradient>
</defs>
</svg>
