<svg width="21" height="21" viewBox="0 0 21 21" fill="none" xmlns="http://www.w3.org/2000/svg"><path d="M10.23 19.743c5.406 0 9.788-4.383 9.788-9.789S15.636.166 10.23.166C4.824.166.44 4.548.44 9.954c0 5.406 4.383 9.789 9.789 9.789z" fill="url(#paint0_radial_44_1575)"/><path opacity=".5" d="M10.23 19.743c5.406 0 9.788-4.383 9.788-9.789S15.636.166 10.23.166C4.824.166.44 4.548.44 9.954c0 5.406 4.383 9.789 9.789 9.789z" fill="url(#paint1_radial_44_1575)"/><path d="M10.23 19.743c5.406 0 9.788-4.383 9.788-9.789S15.636.166 10.23.166C4.824.166.44 4.548.44 9.954c0 5.406 4.383 9.789 9.789 9.789z" fill="url(#paint2_radial_44_1575)"/><path d="M8.076 4.027c0-.392-.423-.638-1.152-.638-.619 0-1.98.342-2.918 1.548-.173.223.091.346.264.2.578-.491 2.122-1.12 3.328-.987.483.054.478-.123.478-.123z" fill="url(#paint3_linear_44_1575)"/><path d="M12.383 4.027c0-.392.424-.638 1.152-.638.62 0 1.98.342 2.918 1.548.173.223-.09.346-.264.2-.578-.491-2.121-1.12-3.328-.987-.482.054-.478-.123-.478-.123z" fill="url(#paint4_linear_44_1575)"/><path d="M10.23 16.369c-5.14 0-6.789-5.24-5.222-4.42 2.103 1.101 3.432 1.42 5.221 1.42 1.785 0 3.12-.319 5.223-1.42 1.566-.816-.082 4.42-5.223 4.42z" fill="#643800"/><path d="M13.321 14.225c0-.314-.3-.547-.605-.456a8.628 8.628 0 01-2.486.346 8.79 8.79 0 01-2.486-.346.474.474 0 00-.606.456v2.781c0 1.708 1.384 3.16 3.092 3.16 1.707 0 3.091-1.452 3.091-3.16v-2.781z" fill="url(#paint5_radial_44_1575)"/><path d="M13.321 14.225c0-.314-.3-.547-.605-.456a8.628 8.628 0 01-2.486.346 8.79 8.79 0 01-2.486-.346.474.474 0 00-.606.456v2.781c0 1.708 1.384 3.16 3.092 3.16 1.707 0 3.091-1.452 3.091-3.16v-2.781z" fill="url(#paint6_radial_44_1575)"/><path d="M15.451 11.953c-2.103 1.102-3.432 1.42-5.221 1.42-1.785 0-3.119-.318-5.222-1.42-.547-.287-.701.164-.456.87 0-.014.082-.77.82-.251 0 0 .004 0 .004.004 1.098.843 2.71 1.54 4.854 1.54s3.756-.697 4.853-1.54c0 0 .004 0 .004-.004.738-.524.82.232.82.25.246-.705.086-1.156-.456-.87z" fill="url(#paint7_linear_44_1575)"/><path opacity=".5" d="M10.23 14.12a8.787 8.787 0 01-2.486-.346.474.474 0 00-.606.455v1.17s.037-.742 3.092-.742c3.05 0 3.091.742 3.091.742v-1.17c0-.314-.3-.546-.605-.455a8.786 8.786 0 01-2.486.346z" fill="#366E0D"/><path opacity=".24" d="M10.23 14.12c-.11 0-.214-.01-.32-.014.005 3.729.147 5.031.32 5.031.173 0 .314-1.284.318-5.03-.104 0-.21.013-.318.013z" fill="url(#paint8_linear_44_1575)"/><path d="M6.78 10.523v.624H6.4v-.624c-.746-.068-1.234-.519-1.275-1.179h.583c.014.437.35.706.893.706.532 0 .855-.26.855-.638 0-.423-.26-.555-.714-.692l-.57-.163c-.555-.164-.992-.474-.992-1.084 0-.651.478-1.115 1.22-1.18v-.632h.378v.637c.678.078 1.125.52 1.156 1.166h-.569c-.022-.433-.341-.706-.837-.706-.487 0-.783.26-.783.66 0 .365.286.528.65.633l.706.205c.701.205.938.61.938 1.11.01.661-.505 1.094-1.26 1.157z" fill="url(#paint9_linear_44_1575)"/><path d="M14.058 10.523v.624h-.377v-.624c-.747-.068-1.234-.519-1.275-1.179h.582c.014.437.351.706.893.706.533 0 .856-.26.856-.638 0-.423-.26-.555-.715-.692l-.57-.163c-.554-.164-.992-.474-.992-1.084 0-.651.478-1.115 1.22-1.18v-.632h.378v.637c.679.078 1.125.52 1.157 1.166h-.57c-.022-.433-.34-.706-.837-.706-.487 0-.783.26-.783.66 0 .365.287.528.651.633l.706.205c.705.205.947.606.947 1.106 0 .665-.515 1.098-1.27 1.161z" fill="url(#paint10_linear_44_1575)"/><path d="M14.058 6.499c.606.068 1.025.432 1.134.97h.027c-.036-.647-.478-1.089-1.156-1.166v.196h-.005z" fill="url(#paint11_linear_44_1575)"/><path d="M14.386 8.252l-.706-.205c-.328-.091-.596-.237-.642-.537a.753.753 0 00-.009.1c0 .364.287.528.651.633l.706.204c.642.187.892.547.933.993 0-.027.01-.05.01-.078 0-.5-.242-.901-.943-1.11z" fill="url(#paint12_linear_44_1575)"/><path d="M13.68 6.49v-.196c-.742.064-1.22.528-1.22 1.18 0 .036.005.063.01.1.05-.602.51-1.025 1.21-1.084z" fill="url(#paint13_linear_44_1575)"/><path d="M12.989 9.54c.013.437.35.706.892.706.533 0 .856-.26.856-.638a.878.878 0 00-.01-.113c-.045.327-.354.55-.846.55-.542 0-.879-.268-.893-.705h-.582c.004.068.018.132.032.196h.55v.004z" fill="url(#paint14_linear_44_1575)"/><path d="M14.059 5.661h-.378v.196h.378V5.66z" fill="url(#paint15_linear_44_1575)"/><path d="M6.779 6.499c.606.068 1.024.432 1.134.97h.027c-.036-.647-.478-1.089-1.156-1.166v.196h-.005z" fill="url(#paint16_linear_44_1575)"/><path d="M7.107 8.252L6.4 8.047c-.328-.091-.596-.237-.642-.537a.743.743 0 00-.009.1c0 .364.287.528.651.633l.706.204c.642.187.892.547.933.993 0-.027.01-.05.01-.078 0-.5-.242-.901-.943-1.11z" fill="url(#paint17_linear_44_1575)"/><path d="M6.401 6.49v-.196c-.742.064-1.22.528-1.22 1.18 0 .036.005.063.01.1.05-.602.51-1.025 1.21-1.084z" fill="url(#paint18_linear_44_1575)"/><path d="M5.71 9.54c.013.437.35.706.892.706.532 0 .855-.26.855-.638a.808.808 0 00-.009-.113c-.045.327-.355.55-.846.55-.542 0-.88-.268-.893-.705h-.583c.005.068.019.132.032.196h.551v.004z" fill="url(#paint19_linear_44_1575)"/><path d="M6.78 5.661H6.4v.196h.378V5.66z" fill="url(#paint20_linear_44_1575)"/><path d="M10.394 18.987v.546h-.328v-.546c-.655-.06-1.079-.455-1.115-1.034h.51c.013.383.305.62.778.62.47 0 .752-.228.752-.56 0-.374-.228-.488-.624-.606l-.496-.146c-.488-.145-.87-.414-.87-.947 0-.569.419-.978 1.07-1.033v-.546h.328v.56c.592.063.983.455 1.015 1.02h-.5c-.02-.379-.301-.62-.734-.62-.428 0-.683.228-.683.574 0 .319.25.46.57.55l.618.183c.61.182.82.533.82.97 0 .582-.45.96-1.11 1.015z" fill="url(#paint21_linear_44_1575)"/><path d="M10.394 15.463c.533.06.897.378.988.847h.023c-.032-.564-.419-.956-1.015-1.02v.173h.004z" fill="url(#paint22_linear_44_1575)"/><path d="M10.686 17.002l-.62-.182c-.286-.082-.519-.21-.56-.47a.56.56 0 00-.009.092c0 .319.25.46.57.55l.619.183c.56.164.783.478.815.865 0-.023.004-.046.004-.068 0-.438-.21-.793-.82-.97z" fill="url(#paint23_linear_44_1575)"/><path d="M10.066 15.459v-.173c-.646.054-1.07.46-1.07 1.033 0 .032.005.06.01.087.04-.524.446-.897 1.06-.947z" fill="url(#paint24_linear_44_1575)"/><path d="M9.46 18.127c.014.382.306.619.78.619.468 0 .75-.228.75-.56a.674.674 0 00-.009-.1c-.04.286-.31.482-.742.482-.473 0-.77-.232-.778-.619h-.51c.004.06.014.118.027.173h.483v.005z" fill="url(#paint25_linear_44_1575)"/><path d="M10.394 14.735h-.328v.173h.328v-.173z" fill="url(#paint26_linear_44_1575)"/><defs><linearGradient id="paint3_linear_44_1575" x1="6.012" y1="4.682" x2="6.012" y2="3.651" gradientUnits="userSpaceOnUse"><stop offset=".001" stop-color="#3C2200"/><stop offset="1" stop-color="#7A4400"/></linearGradient><linearGradient id="paint4_linear_44_1575" x1="14.447" y1="4.682" x2="14.447" y2="3.651" gradientUnits="userSpaceOnUse"><stop offset=".001" stop-color="#3C2200"/><stop offset="1" stop-color="#7A4400"/></linearGradient><linearGradient id="paint7_linear_44_1575" x1="10.229" y1="10.019" x2="10.229" y2="14.007" gradientUnits="userSpaceOnUse"><stop offset=".001" stop-color="#3C2200"/><stop offset="1" stop-color="#512D00"/></linearGradient><linearGradient id="paint8_linear_44_1575" x1="10.229" y1="26.49" x2="10.229" y2="12.394" gradientUnits="userSpaceOnUse"><stop stop-color="#7CEB00"/><stop offset="1" stop-color="#2F9200"/></linearGradient><linearGradient id="paint9_linear_44_1575" x1="6.588" y1="-.611" x2="6.588" y2="18.32" gradientUnits="userSpaceOnUse"><stop offset=".001" stop-color="#3C2200"/><stop offset="1" stop-color="#7A4400"/></linearGradient><linearGradient id="paint10_linear_44_1575" x1="13.867" y1="-.611" x2="13.867" y2="18.32" gradientUnits="userSpaceOnUse"><stop offset=".001" stop-color="#3C2200"/><stop offset="1" stop-color="#7A4400"/></linearGradient><linearGradient id="paint11_linear_44_1575" x1="14.638" y1="4.724" x2="14.638" y2="8.142" gradientUnits="userSpaceOnUse"><stop offset=".001" stop-color="#3C2200"/><stop offset="1" stop-color="#512D00"/></linearGradient><linearGradient id="paint12_linear_44_1575" x1="14.179" y1="4.903" x2="14.179" y2="10.561" gradientUnits="userSpaceOnUse"><stop offset=".001" stop-color="#3C2200"/><stop offset="1" stop-color="#512D00"/></linearGradient><linearGradient id="paint13_linear_44_1575" x1="13.072" y1="4.565" x2="13.072" y2="8.313" gradientUnits="userSpaceOnUse"><stop offset=".001" stop-color="#3C2200"/><stop offset="1" stop-color="#512D00"/></linearGradient><linearGradient id="paint14_linear_44_1575" x1="13.572" y1="8.124" x2="13.572" y2="10.77" gradientUnits="userSpaceOnUse"><stop offset=".001" stop-color="#3C2200"/><stop offset="1" stop-color="#512D00"/></linearGradient><linearGradient id="paint15_linear_44_1575" x1="13.871" y1="5.397" x2="13.871" y2="5.973" gradientUnits="userSpaceOnUse"><stop offset=".001" stop-color="#3C2200"/><stop offset="1" stop-color="#512D00"/></linearGradient><linearGradient id="paint16_linear_44_1575" x1="7.359" y1="4.724" x2="7.359" y2="8.142" gradientUnits="userSpaceOnUse"><stop offset=".001" stop-color="#3C2200"/><stop offset="1" stop-color="#512D00"/></linearGradient><linearGradient id="paint17_linear_44_1575" x1="6.899" y1="4.903" x2="6.899" y2="10.561" gradientUnits="userSpaceOnUse"><stop offset=".001" stop-color="#3C2200"/><stop offset="1" stop-color="#512D00"/></linearGradient><linearGradient id="paint18_linear_44_1575" x1="5.793" y1="4.565" x2="5.793" y2="8.313" gradientUnits="userSpaceOnUse"><stop offset=".001" stop-color="#3C2200"/><stop offset="1" stop-color="#512D00"/></linearGradient><linearGradient id="paint19_linear_44_1575" x1="6.293" y1="8.124" x2="6.293" y2="10.77" gradientUnits="userSpaceOnUse"><stop offset=".001" stop-color="#3C2200"/><stop offset="1" stop-color="#512D00"/></linearGradient><linearGradient id="paint20_linear_44_1575" x1="6.591" y1="5.397" x2="6.591" y2="5.973" gradientUnits="userSpaceOnUse"><stop offset=".001" stop-color="#3C2200"/><stop offset="1" stop-color="#512D00"/></linearGradient><linearGradient id="paint21_linear_44_1575" x1="10.228" y1="8.244" x2="10.228" y2="22.317" gradientUnits="userSpaceOnUse"><stop offset=".001" stop-color="#3C2200"/><stop offset="1" stop-color="#7A4400"/></linearGradient><linearGradient id="paint22_linear_44_1575" x1="10.903" y1="13.913" x2="10.903" y2="16.904" gradientUnits="userSpaceOnUse"><stop offset=".001" stop-color="#3C2200"/><stop offset="1" stop-color="#512D00"/></linearGradient><linearGradient id="paint23_linear_44_1575" x1="10.501" y1="14.069" x2="10.501" y2="19.02" gradientUnits="userSpaceOnUse"><stop offset=".001" stop-color="#3C2200"/><stop offset="1" stop-color="#512D00"/></linearGradient><linearGradient id="paint24_linear_44_1575" x1="9.532" y1="13.774" x2="9.532" y2="17.053" gradientUnits="userSpaceOnUse"><stop offset=".001" stop-color="#3C2200"/><stop offset="1" stop-color="#512D00"/></linearGradient><linearGradient id="paint25_linear_44_1575" x1="9.97" y1="16.887" x2="9.97" y2="19.203" gradientUnits="userSpaceOnUse"><stop offset=".001" stop-color="#3C2200"/><stop offset="1" stop-color="#512D00"/></linearGradient><linearGradient id="paint26_linear_44_1575" x1="10.231" y1="14.502" x2="10.231" y2="15.006" gradientUnits="userSpaceOnUse"><stop offset=".001" stop-color="#3C2200"/><stop offset="1" stop-color="#512D00"/></linearGradient><radialGradient id="paint0_radial_44_1575" cx="0" cy="0" r="1" gradientUnits="userSpaceOnUse" gradientTransform="translate(8.304 5.987) scale(11.8083)"><stop stop-color="#FFDF30"/><stop offset="1" stop-color="#FFB82E"/></radialGradient><radialGradient id="paint1_radial_44_1575" cx="0" cy="0" r="1" gradientUnits="userSpaceOnUse" gradientTransform="translate(8.304 5.987) scale(9.29012)"><stop stop-color="#FFE95F"/><stop offset="1" stop-color="#FFBB47" stop-opacity="0"/></radialGradient><radialGradient id="paint2_radial_44_1575" cx="0" cy="0" r="1" gradientUnits="userSpaceOnUse" gradientTransform="matrix(5.07502 0 0 1.83056 10.26 17.889)"><stop stop-color="#7A4400" stop-opacity=".5"/><stop offset=".601" stop-color="#894D00" stop-opacity=".198"/><stop offset=".995" stop-color="#965500" stop-opacity="0"/></radialGradient><radialGradient id="paint5_radial_44_1575" cx="0" cy="0" r="1" gradientUnits="userSpaceOnUse" gradientTransform="matrix(3.14947 0 0 5.86433 10.23 16.066)"><stop stop-color="#7CEB00"/><stop offset="1" stop-color="#2F9200"/></radialGradient><radialGradient id="paint6_radial_44_1575" cx="0" cy="0" r="1" gradientUnits="userSpaceOnUse" gradientTransform="rotate(-39.902 30.327 -6.388) scale(3.24394 1.96722)"><stop stop-color="#fff" stop-opacity=".33"/><stop offset="1" stop-color="#fff" stop-opacity="0"/></radialGradient></defs></svg>2="18.3198" gradientUnits="userSpaceOnUse">
<stop offset="0.00132565" stop-color="#3C2200"/>
<stop offset="1" stop-color="#7A4400"/>
</linearGradient>
<linearGradient id="paint11_linear_44_1575" x1="14.6382" y1="4.72432" x2="14.6382" y2="8.14181" gradientUnits="userSpaceOnUse">
<stop offset="0.00132565" stop-color="#3C2200"/>
<stop offset="1" stop-color="#512D00"/>
</linearGradient>
<linearGradient id="paint12_linear_44_1575" x1="14.1789" y1="4.9034" x2="14.1789" y2="10.5607" gradientUnits="userSpaceOnUse">
<stop offset="0.00132565" stop-color="#3C2200"/>
<stop offset="1" stop-color="#512D00"/>
</linearGradient>
<linearGradient id="paint13_linear_44_1575" x1="13.0722" y1="4.56536" x2="13.0722" y2="8.31276" gradientUnits="userSpaceOnUse">
<stop offset="0.00132565" stop-color="#3C2200"/>
<stop offset="1" stop-color="#512D00"/>
</linearGradient>
<linearGradient id="paint14_linear_44_1575" x1="13.5725" y1="8.12359" x2="13.5725" y2="10.7699" gradientUnits="userSpaceOnUse">
<stop offset="0.00132565" stop-color="#3C2200"/>
<stop offset="1" stop-color="#512D00"/>
</linearGradient>
<linearGradient id="paint15_linear_44_1575" x1="13.8708" y1="5.3971" x2="13.8708" y2="5.97323" gradientUnits="userSpaceOnUse">
<stop offset="0.00132565" stop-color="#3C2200"/>
<stop offset="1" stop-color="#512D00"/>
</linearGradient>
<linearGradient id="paint16_linear_44_1575" x1="7.35866" y1="4.72432" x2="7.35866" y2="8.14181" gradientUnits="userSpaceOnUse">
<stop offset="0.00132565" stop-color="#3C2200"/>
<stop offset="1" stop-color="#512D00"/>
</linearGradient>
<linearGradient id="paint17_linear_44_1575" x1="6.89933" y1="4.9034" x2="6.89933" y2="10.5607" gradientUnits="userSpaceOnUse">
<stop offset="0.00132565" stop-color="#3C2200"/>
<stop offset="1" stop-color="#512D00"/>
</linearGradient>
<linearGradient id="paint18_linear_44_1575" x1="5.79259" y1="4.56536" x2="5.79259" y2="8.31276" gradientUnits="userSpaceOnUse">
<stop offset="0.00132565" stop-color="#3C2200"/>
<stop offset="1" stop-color="#512D00"/>
</linearGradient>
<linearGradient id="paint19_linear_44_1575" x1="6.29291" y1="8.12359" x2="6.29291" y2="10.7699" gradientUnits="userSpaceOnUse">
<stop offset="0.00132565" stop-color="#3C2200"/>
<stop offset="1" stop-color="#512D00"/>
</linearGradient>
<linearGradient id="paint20_linear_44_1575" x1="6.59124" y1="5.3971" x2="6.59124" y2="5.97323" gradientUnits="userSpaceOnUse">
<stop offset="0.00132565" stop-color="#3C2200"/>
<stop offset="1" stop-color="#512D00"/>
</linearGradient>
<linearGradient id="paint21_linear_44_1575" x1="10.2279" y1="8.24417" x2="10.2279" y2="22.3175" gradientUnits="userSpaceOnUse">
<stop offset="0.00132565" stop-color="#3C2200"/>
<stop offset="1" stop-color="#7A4400"/>
</linearGradient>
<linearGradient id="paint22_linear_44_1575" x1="10.9028" y1="13.9129" x2="10.9028" y2="16.9036" gradientUnits="userSpaceOnUse">
<stop offset="0.00132565" stop-color="#3C2200"/>
<stop offset="1" stop-color="#512D00"/>
</linearGradient>
<linearGradient id="paint23_linear_44_1575" x1="10.501" y1="14.0693" x2="10.501" y2="19.0201" gradientUnits="userSpaceOnUse">
<stop offset="0.00132565" stop-color="#3C2200"/>
<stop offset="1" stop-color="#512D00"/>
</linearGradient>
<linearGradient id="paint24_linear_44_1575" x1="9.53206" y1="13.7737" x2="9.53206" y2="17.0531" gradientUnits="userSpaceOnUse">
<stop offset="0.00132565" stop-color="#3C2200"/>
<stop offset="1" stop-color="#512D00"/>
</linearGradient>
<linearGradient id="paint25_linear_44_1575" x1="9.97006" y1="16.8874" x2="9.97006" y2="19.2033" gradientUnits="userSpaceOnUse">
<stop offset="0.00132565" stop-color="#3C2200"/>
<stop offset="1" stop-color="#512D00"/>
</linearGradient>
<linearGradient id="paint26_linear_44_1575" x1="10.2311" y1="14.5015" x2="10.2311" y2="15.0057" gradientUnits="userSpaceOnUse">
<stop offset="0.00132565" stop-color="#3C2200"/>
<stop offset="1" stop-color="#512D00"/>
</linearGradient>
</defs>
</svg>
