<svg width="0" height="0" xmlns="http://www.w3.org/2000/svg">
    <symbol id="home" viewBox="0 0 25 25">
        <path fill-rule="evenodd" clip-rule="evenodd" d="M13.4286 2.79425C12.8415 2.40192 12.1585 2.40192 11.5714 2.79425L11.5502 2.80818L3.82626 7.74583C2.97277 8.29033 2.5 9.22992 2.5 10.1714V20.7201C2.5 21.7159 3.28658 22.5 4.27239 22.5H20.7276C21.7134 22.5 22.5 21.7159 22.5 20.7201V10.1714C22.5 9.19775 21.9849 8.32475 21.1494 7.73033L13.4498 2.80818L13.4286 2.79425ZM14.8062 0.708083C13.3841 -0.236033 11.6158 -0.236025 10.1937 0.708092L2.4807 5.63882C2.48088 5.63872 2.48053 5.63893 2.4807 5.63882C0.871825 6.6655 0 8.41992 0 10.1714V20.7201C0 23.0907 1.89999 25 4.27239 25H20.7276C23.1 25 25 23.0907 25 20.7201V10.1714C25 8.23542 23.9563 6.64575 22.565 5.66944C22.5503 5.65913 22.5354 5.64913 22.5202 5.63946L14.8062 0.708083Z"/>
    </symbol>
    <symbol id="alarm" viewBox="0 0 25 25">
        <path fill-rule="evenodd" clip-rule="evenodd" d="M12.4512 2.5C8.26015 2.5 4.94249 5.74677 4.94249 9.59675V13.7097C4.94249 13.958 4.86857 14.2007 4.73017 14.4067L2.69928 17.4309L2.68583 17.4506C2.45213 17.7846 2.47773 18.0896 2.59834 18.309C2.72369 18.5371 2.99769 18.75 3.43907 18.75H21.5902C21.9083 18.75 22.2166 18.5606 22.3887 18.254C22.5531 17.9611 22.5283 17.6947 22.374 17.4923C22.3659 17.4818 22.3579 17.471 22.3501 17.4601L20.1923 14.4359C20.0411 14.2239 19.9598 13.9701 19.9598 13.7097V9.59675C19.9598 7.66475 19.1038 5.81802 17.8266 4.59139C16.375 3.32147 14.5097 2.5 12.4512 2.5ZM2.44338 9.59675C2.44338 4.25324 6.99544 0 12.4512 0C15.207 0 17.6501 1.10684 19.4959 2.73068C19.5084 2.74165 19.5206 2.75287 19.5326 2.76432C21.292 4.44102 22.4589 6.941 22.4589 9.59675V13.3093L24.3739 15.9932C25.2205 17.1181 25.1303 18.4757 24.5678 19.4779C24.01 20.4717 22.9221 21.25 21.5902 21.25H3.43907C0.737304 21.25 -0.997935 18.3724 0.630826 16.0278L2.44338 13.3288V9.59675ZM7.50642 23.75C7.50642 23.0597 8.06589 22.5 8.75598 22.5H16.2533C16.9434 22.5 17.5029 23.0597 17.5029 23.75C17.5029 24.4403 16.9434 25 16.2533 25H8.75598C8.06589 25 7.50642 24.4403 7.50642 23.75Z"/>
    </symbol>
    <symbol id="chz" viewBox="0 0 20 27">
        <path d="M10 11C15.2635 11 19 8.08989 19 5C19 1.91011 15.2635 0 10 0C4.60811 0 0 2.91011 0 6C0 9.08989 4.60811 11 10 11ZM10 2C13.9797 2 16 4.51685 16 6C16 7.48315 13.9797 9 10 9C6.02027 8.8764 3 7.35955 3 6C3 4.64045 6.02027 2 10 2Z"/>
        <path d="M18 11C17.3602 10.6547 17.3839 11.5396 17 12C16.3602 13.1509 13.3274 14 10 14C6.54472 14 3.76787 13.1509 3.00003 12C2.6161 11.5396 2.6399 10.6547 2.00003 11C1.36015 11.3453 0.616102 12.4245 1.00003 13C2.40774 14.9565 6.03282 16 10 16C13.9672 16 17.5923 14.9565 19 13C19.256 12.4245 18.6399 11.3453 18 11Z"/>
        <path d="M18 17C17.3634 16.6566 17.3819 17.5422 17 18C16.2361 19.03 13.4376 20 9.99998 20C6.68964 20 3.76391 19.1445 2.99998 18C2.61802 17.4277 2.63659 16.6566 1.99998 17C1.36338 17.3433 0.618022 18.4277 0.999985 19C2.40051 20.9456 6.05304 22 9.99998 22C13.9469 22 17.5995 20.9456 19 19C19.3819 18.4277 18.6366 17.3433 18 17Z"/>
        <path d="M18 22C17.3602 21.6566 17.3839 22.5422 17 23C16.3602 24.1445 13.3274 25 10 25C6.67269 25 3.76787 24.1445 3.00003 23C2.6161 22.4277 2.6399 21.6566 2.00003 22C1.36015 22.3433 0.616102 23.4277 1.00003 24C2.27977 25.9456 5.90484 27 10 27C13.9672 27 17.5923 25.9456 19 24C19.256 23.4277 18.6399 22.3433 18 22Z"/>
    </symbol>
    <symbol id="chz" viewBox="0 0 19 27">
        <path d="M9.5 11C14.7635 11 19 8.52809 19 5.4382C19 2.34831 14.7635 0 9.5 0C4.10811 0 0 2.47191 0 5.5618C0 8.65168 4.10811 11 9.5 11ZM9.5 2.47191C13.4797 2.47191 16.4324 4.07865 16.4324 5.5618C16.4324 7.04494 13.4797 8.65168 9.5 8.65168C5.52027 8.52809 2.56757 6.92135 2.56757 5.5618C2.56757 4.20225 5.52027 2.47191 9.5 2.47191Z"/>
        <path d="M17.8645 11.1662C17.2246 10.821 16.4568 11.0512 16.0729 11.5115C15.433 12.6624 12.8735 13.6982 9.54617 13.6982C6.09086 13.6982 3.65935 12.6624 2.89151 11.5115C2.50758 11.0512 1.73975 10.821 1.09988 11.1662C0.460008 11.5115 0.332034 12.202 0.715957 12.7775C2.12368 14.734 5.57897 16 9.54617 16C13.5134 16 16.9687 14.734 18.3764 12.7775C18.6324 12.202 18.5044 11.5115 17.8645 11.1662Z"/>
        <path d="M17.9032 17.1931C17.2666 16.8498 16.5027 17.0787 16.1207 17.5365C15.3568 18.5665 12.9377 19.711 9.50001 19.711C6.18967 19.711 3.64325 18.681 2.87932 17.5365C2.49736 16.9642 1.73342 16.8498 1.09682 17.1931C0.460213 17.5365 0.332891 18.2232 0.714854 18.7954C2.11538 20.7411 5.55306 22 9.50001 22C13.447 22 16.8846 20.7411 18.2851 18.7954C18.6671 18.2232 18.5398 17.5365 17.9032 17.1931Z"/>
        <path d="M17.8645 22.1931C17.2246 21.8498 16.4568 22.0787 16.0729 22.5365C15.433 23.681 12.8735 24.711 9.54617 24.711C6.21884 24.711 3.65935 23.681 2.89151 22.5365C2.50758 21.9642 1.73975 21.8498 1.09988 22.1931C0.460008 22.5365 0.332034 23.2232 0.715957 23.7954C1.9957 25.7411 5.45099 27 9.54617 27C13.5134 27 16.9687 25.7411 18.3764 23.7954C18.6324 23.2232 18.5044 22.5365 17.8645 22.1931Z"/>
    </symbol>
    <symbol id="message" viewBox="0 0 27 23">
        <path fill-rule="evenodd" clip-rule="evenodd" d="M5.66668 2.55556C3.98379 2.55556 2.45455 4.12416 2.45455 6.35362V16.6464C2.45455 18.8758 3.98379 20.4444 5.66668 20.4444H21.4512C23.1394 20.4444 24.6365 18.8809 24.5414 16.7045C24.5405 16.6851 24.5401 16.6657 24.5401 16.6464V6.35362C24.5401 4.12416 23.0108 2.55556 21.3279 2.55556H5.66668ZM0 6.35362C0 2.94327 2.4169 0 5.66668 0H21.3279C24.5777 0 26.9946 2.94327 26.9946 6.35362V16.6189C27.1303 20.069 24.6862 23 21.4512 23H5.66668C2.4169 23 0 20.0568 0 16.6464V6.35362Z"/>
        <path fill-rule="evenodd" clip-rule="evenodd" d="M5.16736 5.60852C5.51745 5.03198 6.30205 4.82943 6.91981 5.15622L12.9352 8.33795C13.6316 8.68746 14.3683 8.68746 15.0647 8.33795L21.0802 5.15622C21.6979 4.82943 22.4825 5.03198 22.8327 5.60852C23.1827 6.18506 22.9658 6.91736 22.348 7.24415L16.3214 10.4318L16.3008 10.4424C14.8335 11.1859 13.1665 11.1859 11.6992 10.4424L11.6786 10.4318L5.652 7.24415C5.03425 6.91736 4.81726 6.18506 5.16736 5.60852Z"/>
    </symbol>
    <symbol id="shutdown" viewBox="0 0 21 21">
        <path d="M14.3644 6.36613C13.9576 5.95317 13.2458 6.05641 12.9407 6.46938C12.5339 6.88234 12.6356 7.60503 13.0424 7.91476C13.9576 8.63745 14.4661 9.7731 14.4661 11.012C14.4661 13.1801 12.7373 15.0384 10.5 15.0384C8.26272 15.0384 6.5339 13.1801 6.5339 10.9088C6.5339 9.7731 7.04238 8.63745 7.95763 7.81151C8.36441 7.39855 8.46611 6.7791 8.05933 6.36613C7.65255 5.95317 7.04238 5.84993 6.6356 6.26289C5.31357 7.50179 4.5 9.15365 4.5 10.9088C4.5 14.2125 7.14407 17 10.5 17C13.7542 17 16.5 14.3157 16.5 10.9088C16.5 9.15365 15.6864 7.50179 14.3644 6.36613Z"/>
        <path d="M10.5 0C4.725 0 0 4.725 0 10.5C0 16.275 4.725 21 10.5 21C16.275 21 21 16.275 21 10.5C21 4.725 16.275 0 10.5 0ZM10.5 18.9C5.88 18.9 2.1 15.12 2.1 10.5C2.1 5.88 5.88 2.1 10.5 2.1C15.12 2.1 18.9 5.88 18.9 10.5C18.9 15.12 15.12 18.9 10.5 18.9Z"/>
        <path d="M10.5 10C11.1 10 11.5 9.57143 11.5 8.92857V5.07143C11.5 4.42857 11.1 4 10.5 4C9.9 4 9.5 4.42857 9.5 5.07143V9.03571C9.5 9.57143 9.9 10 10.5 10Z"/>
    </symbol>
    <symbol id="shop" viewBox="0 0 27 24">
        <path d="M26.73 4.1105L26.055 2.25414C25.65 0.928177 24.3 0 22.95 0H4.05C2.7 0 1.35 0.928177 0.945 2.25414L0.27 4.1105C-0.27 5.83425 -1.07288e-07 7.55801 1.08 9.01657C1.35 9.54696 1.89 9.94475 2.295 10.3425V18.8287C2.295 21.7459 4.725 24 7.56 24H10.53C11.34 24 11.88 23.4696 11.88 22.674V18.8287C11.88 17.9006 12.555 17.2376 13.5 17.2376C14.445 17.2376 15.12 17.9006 15.12 18.8287V22.674C15.12 23.4696 15.66 24 16.47 24H19.44C22.41 24 24.705 21.6133 24.705 18.8287V14.5856C24.705 13.7901 24.165 13.2597 23.355 13.2597C22.545 13.2597 22.005 13.7901 22.005 14.5856V18.6961C22.005 20.1547 20.79 21.2155 19.44 21.2155H17.82V18.6961C17.82 16.3094 15.93 14.453 13.5 14.453C11.07 14.453 9.18 16.3094 9.18 18.6961V21.2155H7.56C6.075 21.2155 4.995 20.0221 4.995 18.6961V11.2707C5.265 11.2707 5.4 11.2707 5.67 11.2707C7.155 11.2707 8.64 10.6077 9.585 9.54696C10.53 10.7403 12.015 11.4033 13.5 11.4033C14.985 11.4033 16.47 10.7403 17.415 9.67956C18.36 10.7403 19.845 11.4033 21.33 11.4033C23.22 11.4033 24.84 10.6077 25.92 9.14917C27 7.55801 27.27 5.83425 26.73 4.1105ZM23.76 7.55801C23.22 8.35359 22.41 8.75138 21.465 8.75138C20.25 8.75138 19.17 7.9558 18.9 6.89503C18.765 6.23204 18.09 5.83425 17.415 5.83425C16.74 5.83425 16.2 6.23204 15.93 6.89503C15.66 7.9558 14.58 8.75138 13.5 8.75138C12.42 8.75138 11.34 7.9558 11.07 6.89503C10.8 6.23204 10.26 5.83425 9.585 5.83425C8.91 5.83425 8.235 6.23204 8.1 6.89503C7.83 7.9558 6.75 8.75138 5.67 8.75138C4.725 8.75138 3.915 8.35359 3.24 7.55801C2.7 6.76243 2.565 5.83425 2.835 4.90608L3.51 3.04972C3.645 2.78453 3.78 2.65193 4.05 2.65193H22.95C23.22 2.65193 23.49 2.78453 23.49 3.04972L24.165 4.90608C24.435 5.83425 24.3 6.76243 23.76 7.55801Z"/>
    </symbol>
    <symbol id="settings" viewBox="0 0 23 25">
        <path fill-rule="evenodd" clip-rule="evenodd" d="M9 0.999975C10.3823 0.228849 12.6177 0.228849 14 0.999975C14.0104 1.00576 13.9899 0.993867 14 0.999975L21 4.99998C22.4041 5.79108 23 7.44897 23 8.99998V16C23 17.4996 22.3474 19.3013 21 20L14 24C13.9899 24.0061 14.0104 23.9942 14 24C12.6177 24.7711 10.3823 24.7711 9 24C8.98961 23.9942 9.01014 24.0061 9 24L2 20C0.59585 19.2089 0 17.551 0 16V8.99998C0 7.45039 0.598269 5.79153 2 4.99998L9 0.999975C9.01244 0.992367 8.98722 1.0071 9 0.999975ZM10 2.99997L3 6.99998C2.9875 7.00756 3.01278 6.99289 3 6.99998C2.34465 7.36556 2 8.24756 2 8.99998V16C2 16.7524 2.34465 17.6344 3 18C3.01037 18.0057 2.98981 17.9938 3 18L10 22C10.6804 22.3732 12.3196 22.3732 13 22L20 18C20.0244 17.9853 19.9744 18.0127 20 18C20.4662 17.7659 21 16.7943 21 16V8.99998C21 8.24756 20.6553 7.36556 20 6.99998C19.9896 6.99423 20.0101 7.00614 20 6.99998L13 2.99997C12.3206 2.62727 10.6798 2.62847 10 2.99997ZM12 9.99998C10.6663 9.99998 9 11.6607 9 13C9 14.3392 10.6663 15 12 15C13.3337 15 14 14.3392 14 13C14 11.6607 13.3337 9.99998 12 9.99998ZM7 13C7 10.3852 9.39597 7.99998 12 7.99998C14.604 7.99998 16 10.3852 16 13C16 15.6147 14.604 17 12 17C9.39597 17 7 15.6147 7 13Z"/>
    </symbol>
    <symbol id="lines" viewBox="0 0 23 25">
        <path d="M3 25C1.39286 25 0 23.686 0 22V10C0 8.20161 1.39286 7 3 7C4.71429 7 6 8.31401 6 10V22C6 23.686 4.71429 25 3 25ZM3 9C2.46429 9 2 9.5504 2 10V22C2 22.562 2.57143 23 3 23C3.42857 23 4 22.4496 4 22V10C4 9.438 3.53571 9 3 9Z"/>
        <path d="M11 25C9.28571 25 8 23.7347 8 22V11C8 9.14966 9.39286 8 11 8C12.7143 8 14 9.26531 14 11V22C14 23.7347 12.7143 25 11 25ZM11 10C10.4643 10 10 10.5374 10 11V22C10 22.5782 10.5714 23 11 23C11.4286 23 12 22.4626 12 22V11C12 10.4218 11.5357 10 11 10Z"/>
        <path d="M20 25C18.2857 25 17 23.7045 17 22V3C17 1.18182 18.3929 0 20 0C21.6071 0 23 1.29545 23 3V22C23 23.7045 21.6071 25 20 25ZM20 2C19.4643 2 19 2.54545 19 3V22C19 22.5682 19.5714 23 20 23C20.4286 23 21 22.4545 21 22V3C21 2.54545 20.4286 2 20 2Z"/>
    </symbol>
    <symbol id="eye" viewBox="0 0 19 14">
        <path d="M19 7C17.3832 2.87077 14.1311 0 10 0C5.86895 0 1.61689 2.87069 -9.76026e-07 7C-0.0506182 7.12923 -0.0506182 6.87077 -9.76026e-07 7C1.61678 11.1297 5.86887 14 10 14C14.1312 14 17.3833 11.1297 19 7C19.0506 6.87077 19.0506 7.12923 19 7ZM10 13C6.31897 13 2.5079 10.6322 0.999999 7C2.50794 3.36819 6.31908 1 10 1C13.681 1 16.4921 3.36827 18 7C16.4921 10.6322 13.681 13 10 13Z"/>
        <path d="M9 3C7.07007 3 6 4.79441 6 7C6 9.20559 7.07011 11 9 11C10.9299 11 13 9.20564 13 7C13 4.79437 10.9299 3 9 3ZM9 10C7.57403 10 7 8.62968 7 7C7 5.37032 7.57403 4 9 4C10.426 4 12 5.37032 12 7C12 8.62968 10.426 10 9 10Z"/>
        <path d="M9.99999 5C9.11489 5 7.99999 5.67227 7.99999 7C7.99999 7.32698 7.78194 8 7.99999 8C8.21803 8 8.99999 7.32698 8.99999 7C8.99999 6.32525 9.55012 6 9.99999 6C10.218 6 9.99999 6.32698 9.99999 6C9.99999 5.67293 10.218 5 9.99999 5Z"/>
    </symbol>
    <symbol id="comment" viewBox="0 0 16 17">
        <path d="M1 15V3C1 2.13564 2.14089 1 3 1H13C13.8591 1 15 2.13564 15 3V10C15 10.8644 13.8591 12 13 12H5C4.52745 12 4.29521 12.6288 4 13L2 15C1.72443 15.3466 1 15.4439 1 15Z" stroke-width="1.5"/>
    </symbol>
    <symbol id="str" viewBox="0 0 23 14">
        <path d="M2 2L12 11L21 2" stroke-width="3" stroke-linecap="round"/>
    </symbol>
    <symbol id="str-all" viewBox="0 0 21 12">
        <path d="M1 1L11 10L20 1" stroke-width="2" stroke-linecap="round"/>
    </symbol>
    <symbol id="plus" viewBox="0 0 19 19">
        <path d="M9 1V18" stroke-width="2" stroke-linecap="round"/>
        <path d="M1 10L18 10" stroke-width="2" stroke-linecap="round"/>
    </symbol>
    <symbol id="search" viewBox="0 0 27 26">
        <path d="M25 19.9999L23 16.9999C22.4904 16.4898 21.5095 16.4898 21 16.9999C20.4904 17.5101 20.4904 18.4897 21 18.9999L23 21.9999C23.3822 22.3826 23.3822 22.6173 23 22.9999C22.6178 23.3826 22.3822 23.3826 22 22.9999L18 18.9999C18.2548 18.7448 18.7453 19.2551 19 18.9999C20.9108 17.0867 22 13.6784 22 10.9999C22 8.19378 21.0383 5.91321 19 3.99995C14.9236 -0.0816877 8.07644 -0.0816877 4.00001 3.99995C-0.0764203 8.08155 -0.0764203 14.9184 4.00001 18.9999C5.91084 20.9132 8.32485 21.9999 11 21.9999C12.5287 21.9999 14.7262 21.6377 16 20.9999L20 24.9999C20.6369 25.6377 21.1083 25.9999 22 25.9999C22.8918 25.9999 24.2357 25.6377 25 24.9999C26.4013 23.4694 26.4013 21.2754 25 19.9999ZM6.00001 16.9999C2.94269 13.9388 2.94269 8.93364 6.00001 5.99995C7.52866 4.46933 8.96176 2.99995 11 2.99995C13.0382 2.99995 15.4713 4.46933 17 5.99995C18.5287 7.53055 19 8.95911 19 10.9999C19 13.0408 18.5287 15.5969 17 16.9999C15.4713 18.403 13.0382 18.9999 11 18.9999C8.96176 18.9999 7.40125 18.5306 6.00001 16.9999Z"/>
    </symbol>
</svg>