<svg width="0" height="0" xmlns="http://www.w3.org/2000/svg">
	<symbol id="home" viewBox="0 0 25 25">
        <path fill-rule="evenodd" clip-rule="evenodd" d="M13 2.99996C12.4129 2.60762 12.5871 2.60762 12 2.99996L4 7.99996C3.14652 8.54446 3 9.05846 3 9.99996V21C3 21.9958 3.01418 23 4 23H21C21.9858 23 23 21.9958 23 21V9.99996C23 9.02629 21.8355 8.59437 21 7.99996L13 2.99996ZM15 0.999958C13.5778 0.055841 11.4221 0.055841 10 0.999958L2 5.99996C2.00017 5.99985 1.99983 6.00007 2 5.99996C0.391125 7.02663 0 8.24846 0 9.99996V21C0 23.3706 1.6276 25 4 25H21C23.3724 25 25 23.3706 25 21V9.99996C25 8.06396 24.3913 6.97627 23 5.99996C22.9853 5.98964 23.0152 6.00963 23 5.99996L15 0.999958Z"/>
    </symbol>
    <symbol id="alarm" viewBox="0 0 26 25">
        <path fill-rule="evenodd" clip-rule="evenodd" d="M12 3C7.80902 3 5.00003 6.15002 5.00003 10V14C5.00003 14.2483 5.13843 13.7939 5.00003 14L3.00003 17C2.76634 17.334 2.87942 17.7806 3.00003 18C3.12537 18.2281 2.55864 19 3.00003 19H22C22.3182 19 21.8279 18.3066 22 18C22.1644 17.7071 22.1544 17.2023 22 17C21.9919 16.9894 22.0078 17.0109 22 17L20 14C19.8488 13.788 20 14.2604 20 14V10C20 8.068 19.2772 6.22662 18 5C16.5485 3.73007 14.0585 3 12 3ZM2.00003 10C2.00003 4.65649 6.54431 0 12 0C14.7559 0 17.1542 1.37616 19 3C19.0125 3.01097 19.988 2.98855 20 3C21.7594 4.6767 22 7.34425 22 10V13L24 16C24.8466 17.1248 25.5625 17.9977 25 19C24.4422 19.9937 23.332 21 22 21H3.00003C0.298257 21 -0.628734 18.3446 1.00003 16L2.00003 13V10ZM8.00003 24C8.00003 23.3097 8.30994 23 9.00003 23H16C16.6901 23 18 23.3097 18 24C18 24.6903 16.6901 25 16 25H9.00003C8.30994 25 8.00003 24.6903 8.00003 24Z"/>
    </symbol>
    <symbol id="chz" viewBox="0 0 20 27">
        <path d="M10 11C15.2635 11 19 8.08989 19 5C19 1.91011 15.2635 0 10 0C4.60811 0 0 2.91011 0 6C0 9.08989 4.60811 11 10 11ZM10 2C13.9797 2 16 4.51685 16 6C16 7.48315 13.9797 9 10 9C6.02027 8.8764 3 7.35955 3 6C3 4.64045 6.02027 2 10 2Z"/>
        <path d="M18 11C17.3602 10.6547 17.3839 11.5396 17 12C16.3602 13.1509 13.3274 14 10 14C6.54472 14 3.76787 13.1509 3.00003 12C2.6161 11.5396 2.6399 10.6547 2.00003 11C1.36015 11.3453 0.616102 12.4245 1.00003 13C2.40774 14.9565 6.03282 16 10 16C13.9672 16 17.5923 14.9565 19 13C19.256 12.4245 18.6399 11.3453 18 11Z"/>
        <path d="M18 17C17.3634 16.6566 17.3819 17.5422 17 18C16.2361 19.03 13.4376 20 9.99998 20C6.68964 20 3.76391 19.1445 2.99998 18C2.61802 17.4277 2.63659 16.6566 1.99998 17C1.36338 17.3433 0.618022 18.4277 0.999985 19C2.40051 20.9456 6.05304 22 9.99998 22C13.9469 22 17.5995 20.9456 19 19C19.3819 18.4277 18.6366 17.3433 18 17Z"/>
        <path d="M18 22C17.3602 21.6566 17.3839 22.5422 17 23C16.3602 24.1445 13.3274 25 10 25C6.67269 25 3.76787 24.1445 3.00003 23C2.6161 22.4277 2.6399 21.6566 2.00003 22C1.36015 22.3433 0.616102 23.4277 1.00003 24C2.27977 25.9456 5.90484 27 10 27C13.9672 27 17.5923 25.9456 19 24C19.256 23.4277 18.6399 22.3433 18 22Z"/>
    </symbol>
    <symbol id="message" viewBox="0 0 28 23">
        <path fill-rule="evenodd" clip-rule="evenodd" d="M6 3C4.31711 3 2 3.77054 2 6V17C2 19.2295 4.31711 20 6 20H21C22.6882 20 25.0952 19.1764 25 17C24.9991 16.9807 25 17.0193 25 17V6C25 3.77054 22.6828 3 21 3H6ZM0 6C0 2.58965 2.75022 0 6 0H21C24.2497 0 27 2.58965 27 6V17C27.1357 20.4502 24.2349 23 21 23H6C2.75022 23 0 20.4104 0 17V6Z"/>
        <path fill-rule="evenodd" clip-rule="evenodd" d="M5 5.99997C5.35009 5.42343 6.38225 4.67318 7 4.99997L13 7.99997C13.6964 8.34948 14.3036 8.34948 15 7.99997L21 4.99997C21.6177 4.67318 22.6499 5.42343 23 5.99997C23.35 6.57651 22.6178 6.67318 22 6.99997L16 9.99997C14.5327 10.7434 13.4673 10.7434 12 9.99997L6 6.99997C5.38225 6.67318 4.6499 6.57651 5 5.99997Z"/>
    </symbol>
    <symbol id="shutdown" viewBox="0 0 21 21">
        <path d="M14 6C13.5932 5.58704 12.3051 5.58704 12 6C11.5932 6.41297 12.5932 7.69028 13 8C13.9153 8.72269 14 9.7611 14 11C14 13.1681 12.2373 15 10 15C7.76271 15 6 13.2713 6 11C6 9.86435 6.08475 8.82593 7 8C7.40678 7.58704 8.40678 6.41297 8 6C7.59322 5.58704 6.40678 5.58704 6 6C4.67797 7.2389 4 9.2449 4 11C4 14.3037 6.64407 17 10 17C13.2542 17 16 14.407 16 11C16 9.2449 15.322 7.13566 14 6Z"/>
        <path d="M11 0C5.225 0 0 5.225 0 11C0 16.775 5.225 21 11 21C16.775 21 21 16.775 21 11C21 5.225 16.775 0 11 0ZM11 19C6.38 19 2 15.62 2 11C2 6.38 6.38 2 11 2C15.62 2 19 6.38 19 11C19 15.62 15.62 19 11 19Z"/>
        <path d="M10 10C10.6 10 11 9.64286 11 9V5C11 4.35714 10.6 4 10 4C9.4 4 9 4.35714 9 5V9C9 9.53571 9.4 10 10 10Z"/>
    </symbol>
    <symbol id="subscribe" viewBox="0 0 30 20">
        <path d="M7.99997 17H3.99997C3.74988 17 4.12501 17.1269 3.99997 17C3.87492 16.8731 2.87492 17.2537 2.99997 17C3.75024 14.8433 5.87422 13 7.99997 13C10.6259 13 13 10.6642 13 8C13 5.33582 10.6259 3 7.99997 3C5.37404 3 2.99997 5.20896 2.99997 8C2.99997 9.26866 4.2497 11.1119 4.99997 12C3.37439 12.8881 1.75024 14.097 0.999968 16C0.749878 16.8881 1.37474 18.1119 1.99997 19C2.62519 19.8881 2.99961 20 3.99997 20H7.99997C8.75024 20 8.99997 19.7612 8.99997 19C8.99997 18.2388 8.75024 17 7.99997 17ZM5.99997 8C5.99997 6.60448 6.74954 6 7.99997 6C9.25042 6 9.99997 6.73134 9.99997 8C9.99997 9.39552 9.25042 10 7.99997 10C6.74954 10 5.99997 9.26866 5.99997 8Z"/>
        <path d="M29 15C28.1458 12.6398 25.9527 10.9938 24 10C25.0984 9.00621 26 7.73913 26 6C26 2.77019 23.9291 0 21 0C18.071 0 15 2.77019 15 6C15 7.61491 15.9017 8.88199 17 10C15.0474 10.9938 12.8543 12.6398 12 15C11.3898 16.118 12.3898 18.0062 13 19C13.6103 19.9938 13.9017 20 15 20H26C27.0984 20 27.3898 19.8696 28 19C28.7323 18.0062 29.4882 16.118 29 15ZM17 6C17 4.13665 18.4135 3 20 3C21.5866 3 23 4.13665 23 6C23 7.86335 21.5866 9 20 9C18.4135 9 17 7.73913 17 6ZM26 17C25.878 17.1242 26.3662 18 26 18H15C14.5119 18 15 17.1242 15 17C14.878 16.8758 14.756 16.4969 15 16C15.9764 13.3913 18.4372 12 21 12C23.5629 12 26.0237 13.3913 27 16C27.1221 16.4969 26.1221 16.8758 26 17Z"/>
    </symbol>
    <symbol id="settings" viewBox="0 0 23 25">
        <path fill-rule="evenodd" clip-rule="evenodd" d="M9 0.999975C10.3823 0.228849 12.6177 0.228849 14 0.999975C14.0104 1.00576 13.9899 0.993867 14 0.999975L21 4.99998C22.4041 5.79108 23 7.44897 23 8.99998V16C23 17.4996 22.3474 19.3013 21 20L14 24C13.9899 24.0061 14.0104 23.9942 14 24C12.6177 24.7711 10.3823 24.7711 9 24C8.98961 23.9942 9.01014 24.0061 9 24L2 20C0.59585 19.2089 0 17.551 0 16V8.99998C0 7.45039 0.598269 5.79153 2 4.99998L9 0.999975C9.01244 0.992367 8.98722 1.0071 9 0.999975ZM10 2.99997L3 6.99998C2.9875 7.00756 3.01278 6.99289 3 6.99998C2.34465 7.36556 2 8.24756 2 8.99998V16C2 16.7524 2.34465 17.6344 3 18C3.01037 18.0057 2.98981 17.9938 3 18L10 22C10.6804 22.3732 12.3196 22.3732 13 22L20 18C20.0244 17.9853 19.9744 18.0127 20 18C20.4662 17.7659 21 16.7943 21 16V8.99998C21 8.24756 20.6553 7.36556 20 6.99998C19.9896 6.99423 20.0101 7.00614 20 6.99998L13 2.99997C12.3206 2.62727 10.6798 2.62847 10 2.99997ZM12 9.99998C10.6663 9.99998 9 11.6607 9 13C9 14.3392 10.6663 15 12 15C13.3337 15 14 14.3392 14 13C14 11.6607 13.3337 9.99998 12 9.99998ZM7 13C7 10.3852 9.39597 7.99998 12 7.99998C14.604 7.99998 16 10.3852 16 13C16 15.6147 14.604 17 12 17C9.39597 17 7 15.6147 7 13Z"/>
    </symbol>
    <symbol id="lines" viewBox="0 0 23 25">
        <path d="M3 25C1.39286 25 0 23.686 0 22V10C0 8.20161 1.39286 7 3 7C4.71429 7 6 8.31401 6 10V22C6 23.686 4.71429 25 3 25ZM3 9C2.46429 9 2 9.5504 2 10V22C2 22.562 2.57143 23 3 23C3.42857 23 4 22.4496 4 22V10C4 9.438 3.53571 9 3 9Z"/>
        <path d="M11 25C9.28571 25 8 23.7347 8 22V11C8 9.14966 9.39286 8 11 8C12.7143 8 14 9.26531 14 11V22C14 23.7347 12.7143 25 11 25ZM11 10C10.4643 10 10 10.5374 10 11V22C10 22.5782 10.5714 23 11 23C11.4286 23 12 22.4626 12 22V11C12 10.4218 11.5357 10 11 10Z"/>
        <path d="M20 25C18.2857 25 17 23.7045 17 22V3C17 1.18182 18.3929 0 20 0C21.6071 0 23 1.29545 23 3V22C23 23.7045 21.6071 25 20 25ZM20 2C19.4643 2 19 2.54545 19 3V22C19 22.5682 19.5714 23 20 23C20.4286 23 21 22.4545 21 22V3C21 2.54545 20.4286 2 20 2Z"/>
    </symbol>
    <symbol id="eye" viewBox="0 0 19 14">
        <path d="M19 7C17.3832 2.87077 14.1311 0 10 0C5.86895 0 1.61689 2.87069 -9.76026e-07 7C-0.0506182 7.12923 -0.0506182 6.87077 -9.76026e-07 7C1.61678 11.1297 5.86887 14 10 14C14.1312 14 17.3833 11.1297 19 7C19.0506 6.87077 19.0506 7.12923 19 7ZM10 13C6.31897 13 2.5079 10.6322 0.999999 7C2.50794 3.36819 6.31908 1 10 1C13.681 1 16.4921 3.36827 18 7C16.4921 10.6322 13.681 13 10 13Z"/>
        <path d="M9 3C7.07007 3 6 4.79441 6 7C6 9.20559 7.07011 11 9 11C10.9299 11 13 9.20564 13 7C13 4.79437 10.9299 3 9 3ZM9 10C7.57403 10 7 8.62968 7 7C7 5.37032 7.57403 4 9 4C10.426 4 12 5.37032 12 7C12 8.62968 10.426 10 9 10Z"/>
        <path d="M9.99999 5C9.11489 5 7.99999 5.67227 7.99999 7C7.99999 7.32698 7.78194 8 7.99999 8C8.21803 8 8.99999 7.32698 8.99999 7C8.99999 6.32525 9.55012 6 9.99999 6C10.218 6 9.99999 6.32698 9.99999 6C9.99999 5.67293 10.218 5 9.99999 5Z"/>
    </symbol>
    <symbol id="comment" viewBox="0 0 16 17">
        <path d="M1 15V3C1 2.13564 2.14089 1 3 1H13C13.8591 1 15 2.13564 15 3V10C15 10.8644 13.8591 12 13 12H5C4.52745 12 4.29521 12.6288 4 13L2 15C1.72443 15.3466 1 15.4439 1 15Z" stroke-width="1.5"/>
    </symbol>
    <symbol id="str" viewBox="0 0 23 14">
        <path d="M2 2L12 11L21 2" stroke-width="3" stroke-linecap="round"/>
    </symbol>
</svg>